<svg id="Layer_1" data-name="Layer 1" xmlns="http://www.w3.org/2000/svg" viewBox="0 0 122.88 122.85"><title>semiconductor</title><path d="M28.89,20.82h65a8.42,8.42,0,0,1,8.39,8.4V94A8.4,8.4,0,0,1,99.8,99.9h0a8.36,8.36,0,0,1-5.92,2.47h-65a8.43,8.43,0,0,1-8.4-8.4V29.22A8.37,8.37,0,0,1,23,23.3h0a8.37,8.37,0,0,1,5.92-2.47ZM45.47,37.51H77.29a8,8,0,0,1,8,8V77.71a8,8,0,0,1-8,8H45.47a8,8,0,0,1-8-8V45.49a8,8,0,0,1,8-8ZM91.88,89.16a2.94,2.94,0,1,1-2.94-2.93,2.94,2.94,0,0,1,2.94,2.93ZM36.75,34a2.94,2.94,0,1,1-2.94-2.93A2.94,2.94,0,0,1,36.75,34ZM88.94,31.1A2.94,2.94,0,1,1,86,34a2.94,2.94,0,0,1,2.93-2.93ZM33.81,86.23a2.94,2.94,0,1,1-2.93,2.93,2.94,2.94,0,0,1,2.93-2.93Zm.7,22.76v13.86H29.34V109Zm11.94,0v13.86H41.28V109Zm11.93,0v13.86H53.21V109Zm11.94,0v13.86H65.15V109Zm11.93,0v13.86H77.08V109Zm11.94,0v13.86H89V109ZM34.51,0V13.86H29.34V0ZM46.45,0V13.86H41.28V0ZM58.38,0V13.86H53.21V0ZM70.32,0V13.86H65.15V0ZM82.25,0V13.86H77.08V0ZM94.19,0V13.86H89V0ZM109,88.81h13.86V94H109V88.81Zm0-11.94h13.86V82H109V76.87Zm0-11.93h13.86v5.17H109V64.94ZM109,53h13.86v5.17H109V53Zm0-11.93h13.86v5.17H109V41.07Zm0-11.94h13.86V34.3H109V29.13ZM0,88.81H13.86V94H0V88.81ZM0,76.87H13.86V82H0V76.87ZM0,64.94H13.86v5.17H0V64.94ZM0,53H13.86v5.17H0V53ZM0,41.07H13.86v5.17H0V41.07ZM0,29.13H13.86V34.3H0V29.13Zm93.87-4.28h-65a4.39,4.39,0,0,0-3.09,1.27h0a4.34,4.34,0,0,0-1.27,3.09V94a4.39,4.39,0,0,0,4.37,4.38h65A4.35,4.35,0,0,0,97,97.07h0A4.35,4.35,0,0,0,98.24,94V29.22a4.39,4.39,0,0,0-4.37-4.37Z"/></svg>